<?xml version="1.0" encoding="utf-8"?>
<!-- Generator: Adobe Illustrator 22.1.0, SVG Export Plug-In . SVG Version: 6.00 Build 0)  -->
<svg version="1.1" id="Layer_1" xmlns="http://www.w3.org/2000/svg" xmlns:xlink="http://www.w3.org/1999/xlink" x="0px" y="0px"
	 viewBox="0 0 5000 5000" style="enable-background:new 0 0 5000 5000;" xml:space="preserve">
<style type="text/css">
	.st0{fill:url(#SVGID_1_);}
</style>
<linearGradient id="SVGID_1_" gradientUnits="userSpaceOnUse" x1="736.074" y1="5044.6899" x2="4039.7095" y2="290.9123">
	<stop  offset="0" style="stop-color:#0063E0"/>
	<stop  offset="1" style="stop-color:#16A7FC"/>
</linearGradient>
<path class="st0" d="M2500,0C1115.7,0-6.5,1122.2-6.5,2506.5c0,1264.9,937,2310.8,2154.8,2481.8v-2154h-508.6v-589h508.6v-434.4
	c0-504.1,307.9-778.6,757.6-778.6c215.4,0,400.5,16,454.5,23.2v526.8l-311.9,0.1c-244.5,0-291.9,116.2-291.9,286.8v376h583.3
	l-76,589h-507.3V5000c1263.8-128.5,2250-1195.8,2250-2493.5C5006.5,1122.2,3884.3,0,2500,0z"/>
</svg>
